<?xml version="1.0" encoding="utf-8" ?><svg xmlns="http://www.w3.org/2000/svg" xmlns:xlink="http://www.w3.org/1999/xlink" width="1344" height="768" viewBox="0 0 1344 768"><path fill="#1B2A4E" d="M440.316 285.376C495.302 281.679 542.88 323.252 546.603 378.25C550.327 433.247 508.787 480.857 453.805 484.609C398.784 488.363 351.145 446.778 347.419 391.742C343.693 336.706 385.292 289.076 440.316 285.376ZM455.65 463.449C499.031 458.722 530.406 419.772 525.794 376.368C521.183 332.964 482.325 301.479 438.92 305.977C395.353 310.492 363.733 349.536 368.361 393.102C372.989 436.668 412.107 468.193 455.65 463.449Z"/><path fill="#1B2A4E" d="M593.552 285.611C605.551 284.681 622.964 285.467 635.587 285.279C651.323 285.443 666.771 284.738 682.485 285.927C727.827 289.358 755.798 333.985 738.588 376.128C730.218 396.625 716.202 403.538 697.012 411.276C713.545 435.433 732.976 459.96 750.371 483.66C742.347 483.71 733.937 483.503 725.889 483.413C721.524 481.826 679.401 421.676 674.27 414.526L614.295 414.832C614.038 437.64 614.291 460.863 614.325 483.701L593.608 483.701C594.291 461.214 593.493 433.664 593.466 410.851L593.552 285.611ZM614.317 394.744L649.934 394.786C668.305 394.868 692.204 397.161 706.992 383.735C712.433 378.047 716.541 372.931 719.331 365.338C725.13 349.557 721.953 330.673 709.39 318.998C692.858 303.636 669.075 304.503 648.074 304.598L616.607 304.841L614.701 305.413C614.07 307.736 614.316 327.418 614.318 330.926L614.317 394.744Z"/><path fill="#1B2A4E" d="M984.29 285.701C990.028 285.406 996.885 285.585 1002.71 285.599L1085.54 393.678C1095 405.926 1114.38 432.994 1124.01 442.682L1123.71 285.712C1130.88 285.536 1138.3 285.643 1145.5 285.655L1145.69 422.701L1145.55 461.286C1145.55 468.193 1145.76 475.231 1145.54 482.121C1145.5 483.369 1145.6 482.908 1144.53 483.841L1128.34 483.738L1005.3 322.848L1005.01 484.314L984.45 484.226L984.29 285.701Z"/><path fill="#1B2A4E" d="M804.993 284.984C818.609 284.46 836.124 284.93 849.968 284.92L930.629 284.944L930.654 304.453L826.733 304.577L826.721 373.632C856.301 373.582 887.799 373.043 917.229 373.751L917.288 393.156C887.518 393.077 856.294 392.511 826.638 393.13C827.158 416.116 826.872 441.576 826.645 464.589C860.917 465.376 896.136 464.234 930.554 464.785L930.538 484.052C911.936 484.649 891.95 484.243 873.259 484.186L805.021 484.238L804.993 284.984Z"/><path fill="#1B2A4E" d="M325.556 285.215L331.183 285.503C330.824 291.387 330.954 298.546 330.917 304.533C317.226 304.822 303.136 304.345 289.415 304.568C282.538 304.68 274.376 304.305 267.633 305.168C268.247 363.521 268.125 425.106 267.53 483.483C260.551 483.685 253.568 483.698 246.589 483.522C247.052 465.356 246.753 445.916 246.76 427.651L246.749 304.558C225.707 304.463 204.663 304.503 183.621 304.677L183.74 285.577C196.118 284.627 218.972 285.375 232.257 285.386L325.556 285.215Z"/></svg>