<svg xmlns="http://www.w3.org/2000/svg" viewBox="0 0 1672 941" width="1672" height="941" role="img" aria-label="AI를 더하는 것과, AI에 맞게 업무를 다시 설계하는 것은 다릅니다">
<rect width="1672" height="941" fill="#f7f6f2"/>
<rect x="0.5" y="0.5" width="1671" height="940" fill="none" stroke="#d9d6ce" stroke-width="1"/>
<rect x="96" y="70" width="34" height="3" fill="#1b2a4e"/>
<text x="96" y="120" text-anchor="start" font-family="'SUIT','Apple SD Gothic Neo','Noto Sans KR',sans-serif" font-size="32" font-weight="600" fill="#0a0a0a" letter-spacing="0">AI를 더하는 것과, AI에 맞게 업무를 다시 설계하는 것은 다릅니다</text>
<text x="112" y="308" text-anchor="start" font-family="'SUIT','Apple SD Gothic Neo','Noto Sans KR',sans-serif" font-size="24" font-weight="600" fill="#1b2a4e" letter-spacing="0">기존 업무</text>
<rect x="282" y="248" width="196" height="104" rx="6" fill="#ffffff" stroke="#d9d6ce" stroke-width="1.5"/><text x="380" y="308" text-anchor="middle" font-family="'SUIT','Apple SD Gothic Neo','Noto Sans KR',sans-serif" font-size="25" font-weight="400" fill="#5e6675" letter-spacing="0">작업</text>
<rect x="582" y="248" width="196" height="104" rx="6" fill="#ffffff" stroke="#d9d6ce" stroke-width="1.5"/><text x="680" y="308" text-anchor="middle" font-family="'SUIT','Apple SD Gothic Neo','Noto Sans KR',sans-serif" font-size="25" font-weight="400" fill="#5e6675" letter-spacing="0">검토</text>
<rect x="882" y="248" width="196" height="104" rx="6" fill="#ffffff" stroke="#d9d6ce" stroke-width="1.5"/><text x="980" y="308" text-anchor="middle" font-family="'SUIT','Apple SD Gothic Neo','Noto Sans KR',sans-serif" font-size="25" font-weight="400" fill="#5e6675" letter-spacing="0">결재</text>
<line x1="478" y1="300" x2="570" y2="300" stroke="#a8adb7" stroke-width="3.5" stroke-linecap="round"/><path d="M 568 292 L 581 300 L 568 308" fill="none" stroke="#a8adb7" stroke-width="3.5" stroke-linecap="round" stroke-linejoin="round"/>
<line x1="778" y1="300" x2="870" y2="300" stroke="#a8adb7" stroke-width="3.5" stroke-linecap="round"/><path d="M 868 292 L 881 300 L 868 308" fill="none" stroke="#a8adb7" stroke-width="3.5" stroke-linecap="round" stroke-linejoin="round"/>
<text x="112" y="528" text-anchor="start" font-family="'SUIT','Apple SD Gothic Neo','Noto Sans KR',sans-serif" font-size="24" font-weight="600" fill="#1b2a4e" letter-spacing="0">AI만 도입</text>
<rect x="282" y="468" width="176" height="104" rx="6" fill="#ffffff" stroke="#d9d6ce" stroke-width="1.5"/><text x="370" y="512" text-anchor="middle" font-family="'SUIT','Apple SD Gothic Neo','Noto Sans KR',sans-serif" font-size="25" font-weight="400" fill="#5e6675" letter-spacing="0">AI 초안</text><text x="370" y="546" text-anchor="middle" font-family="'SUIT','Apple SD Gothic Neo','Noto Sans KR',sans-serif" font-size="25" font-weight="400" fill="#5e6675" letter-spacing="0">10분</text>
<rect x="576" y="454" width="248" height="132" rx="6" fill="#faf1ef" stroke="#e5c3bc" stroke-width="1.5"/><rect x="576" y="454" width="248" height="5" rx="2.5" fill="#c0392b"/><text x="700" y="512" text-anchor="middle" font-family="'SUIT','Apple SD Gothic Neo','Noto Sans KR',sans-serif" font-size="25" font-weight="600" fill="#c0392b" letter-spacing="0">사람</text><text x="700" y="546" text-anchor="middle" font-family="'SUIT','Apple SD Gothic Neo','Noto Sans KR',sans-serif" font-size="25" font-weight="600" fill="#c0392b" letter-spacing="0">전면 재검토</text>
<rect x="952" y="468" width="176" height="104" rx="6" fill="#ffffff" stroke="#d9d6ce" stroke-width="1.5"/><text x="1040" y="528" text-anchor="middle" font-family="'SUIT','Apple SD Gothic Neo','Noto Sans KR',sans-serif" font-size="25" font-weight="400" fill="#5e6675" letter-spacing="0">결재</text>
<line x1="458" y1="520" x2="564" y2="520" stroke="#2c4270" stroke-width="3.5" stroke-linecap="round"/><path d="M 562 512 L 575 520 L 562 528" fill="none" stroke="#2c4270" stroke-width="3.5" stroke-linecap="round" stroke-linejoin="round"/>
<line x1="824" y1="520" x2="940" y2="520" stroke="#a8adb7" stroke-width="3.5" stroke-linecap="round"/><path d="M 938 512 L 951 520 L 938 528" fill="none" stroke="#a8adb7" stroke-width="3.5" stroke-linecap="round" stroke-linejoin="round"/>
<text x="700" y="628" text-anchor="middle" font-family="'SUIT','Apple SD Gothic Neo','Noto Sans KR',sans-serif" font-size="21" font-weight="600" fill="#c0392b" letter-spacing="0">병목이 여기로 이동</text>
<text x="112" y="768" text-anchor="start" font-family="'SUIT','Apple SD Gothic Neo','Noto Sans KR',sans-serif" font-size="24" font-weight="600" fill="#1b2a4e" letter-spacing="0">결정·책임 설계</text>
<rect x="282" y="708" width="176" height="104" rx="6" fill="#ffffff" stroke="#d9d6ce" stroke-width="1.5"/><rect x="282" y="708" width="176" height="5" rx="2.5" fill="#1b2a4e"/><text x="370" y="768" text-anchor="middle" font-family="'SUIT','Apple SD Gothic Neo','Noto Sans KR',sans-serif" font-size="25" font-weight="500" fill="#1b2a4e" letter-spacing="0">AI 실행</text>
<path d="M 660 682 L 738 760 L 660 838 L 582 760 Z" fill="#ffffff" stroke="#1b2a4e" stroke-width="2"/>
<text x="660" y="754" text-anchor="middle" font-family="'SUIT','Apple SD Gothic Neo','Noto Sans KR',sans-serif" font-size="20" font-weight="500" fill="#1b2a4e" letter-spacing="0">정책·권한</text>
<text x="660" y="782" text-anchor="middle" font-family="'SUIT','Apple SD Gothic Neo','Noto Sans KR',sans-serif" font-size="20" font-weight="500" fill="#1b2a4e" letter-spacing="0">게이트</text>
<line x1="458" y1="760" x2="570" y2="760" stroke="#1b2a4e" stroke-width="3.5" stroke-linecap="round"/><path d="M 568 752 L 581 760 L 568 768" fill="none" stroke="#1b2a4e" stroke-width="3.5" stroke-linecap="round" stroke-linejoin="round"/>
<path d="M 732 736 C 840 642, 900 642, 1220 642" fill="none" stroke="#27704a" stroke-width="3.5" stroke-linecap="round"/>
<path d="M 1218 634 L 1231 642 L 1218 650" fill="none" stroke="#27704a" stroke-width="3.5" stroke-linecap="round" stroke-linejoin="round"/>
<path d="M 732 784 C 840 878, 900 878, 1220 878" fill="none" stroke="#c0392b" stroke-width="3.5" stroke-linecap="round"/>
<path d="M 1218 870 L 1231 878 L 1218 886" fill="none" stroke="#c0392b" stroke-width="3.5" stroke-linecap="round" stroke-linejoin="round"/>
<rect x="1214" y="596" width="372" height="92" rx="6" fill="#eef5f0" stroke="#bcd7c8" stroke-width="1.5"/><text x="1400" y="650" text-anchor="middle" font-family="'SUIT','Apple SD Gothic Neo','Noto Sans KR',sans-serif" font-size="23" font-weight="500" fill="#27704a" letter-spacing="0">저위험 · 자동 완료</text>
<path d="M 1240 642 l 14 15 l 28 -30" fill="none" stroke="#27704a" stroke-width="4" stroke-linecap="round" stroke-linejoin="round"/>
<rect x="1214" y="832" width="372" height="92" rx="6" fill="#ffffff" stroke="#e5c3bc" stroke-width="1.5"/><rect x="1214" y="832" width="372" height="5" rx="2.5" fill="#c0392b"/><text x="1400" y="886" text-anchor="middle" font-family="'SUIT','Apple SD Gothic Neo','Noto Sans KR',sans-serif" font-size="22" font-weight="500" fill="#5e6675" letter-spacing="0">고위험 · 예외 → 책임자 상신</text>
<text x="96" y="883" text-anchor="start" font-family="'SUIT','Apple SD Gothic Neo','Noto Sans KR',sans-serif" font-size="23" font-weight="400" fill="#5e6675" letter-spacing="0" font-style="italic">사람은 예외와 고위험 판단에 집중</text>
</svg>