<svg xmlns="http://www.w3.org/2000/svg" viewBox="0 0 1672 941" width="1672" height="941" role="img" aria-label="AI created time — but the time did not become output">
<rect width="1672" height="941" fill="#f7f6f2"/>
<rect x="0.5" y="0.5" width="1671" height="940" fill="none" stroke="#d9d6ce" stroke-width="1"/>
<rect x="96" y="96" width="34" height="3" fill="#1b2a4e"/>
<text x="96" y="148" text-anchor="start" font-family="'Jost','Inter',system-ui,sans-serif" font-size="34" font-weight="600" fill="#0a0a0a" letter-spacing="0">AI created time — but the time did not become output</text>
<g><rect x="96" y="350" width="316" height="300" rx="6" fill="#ffffff" stroke="#d9d6ce" stroke-width="1.5"/><rect x="96" y="350" width="6" height="300" rx="3" fill="#1b2a4e"/><text x="254" y="486" text-anchor="middle" font-family="'Jost','Inter',system-ui,sans-serif" font-size="92" font-weight="600" fill="#1b2a4e" letter-spacing="-0.02em">−3.8%</text><text x="254" y="558" text-anchor="middle" font-family="'Jost','Inter',system-ui,sans-serif" font-size="25" font-weight="400" fill="#5e6675" letter-spacing="0">Time per task</text></g>
<g><rect x="470" y="350" width="316" height="300" rx="6" fill="#ffffff" stroke="#d9d6ce" stroke-width="1.5"/><rect x="470" y="350" width="6" height="300" rx="3" fill="#1b2a4e"/><text x="628" y="486" text-anchor="middle" font-family="'Jost','Inter',system-ui,sans-serif" font-size="92" font-weight="600" fill="#1b2a4e" letter-spacing="-0.02em">≈1.5h</text><text x="628" y="558" text-anchor="middle" font-family="'Jost','Inter',system-ui,sans-serif" font-size="25" font-weight="400" fill="#5e6675" letter-spacing="0">Saved per week</text></g>
<g><rect x="844" y="350" width="316" height="300" rx="6" fill="#ffffff" stroke="#d9d6ce" stroke-width="1.5"/><rect x="844" y="350" width="6" height="300" rx="3" fill="#1b2a4e"/><text x="1002" y="486" text-anchor="middle" font-family="'Jost','Inter',system-ui,sans-serif" font-size="92" font-weight="600" fill="#1b2a4e" letter-spacing="-0.02em">≈1.0%</text><text x="1002" y="558" text-anchor="middle" font-family="'Jost','Inter',system-ui,sans-serif" font-size="25" font-weight="400" fill="#5e6675" letter-spacing="0">Potential productivity (upper bound)</text></g>
<g><rect x="1260" y="350" width="316" height="300" rx="6" fill="#faf1ef" stroke="#e5c3bc" stroke-width="1.5"/><rect x="1260" y="350" width="6" height="300" rx="3" fill="#c0392b"/><text x="1418" y="486" text-anchor="middle" font-family="'Jost','Inter',system-ui,sans-serif" font-size="92" font-weight="600" fill="#c0392b" letter-spacing="-0.02em">0</text><text x="1418" y="558" text-anchor="middle" font-family="'Jost','Inter',system-ui,sans-serif" font-size="25" font-weight="400" fill="#5e6675" letter-spacing="0">Correlation with</text><text x="1418" y="592" text-anchor="middle" font-family="'Jost','Inter',system-ui,sans-serif" font-size="25" font-weight="400" fill="#5e6675" letter-spacing="0">output growth</text></g>
<line x1="412" y1="500" x2="456" y2="500" stroke="#2c4270" stroke-width="4" stroke-linecap="round"/><path d="M 454 491 L 468 500 L 454 509" fill="none" stroke="#2c4270" stroke-width="4" stroke-linecap="round" stroke-linejoin="round"/>
<line x1="786" y1="500" x2="830" y2="500" stroke="#2c4270" stroke-width="4" stroke-linecap="round"/><path d="M 828 491 L 842 500 L 828 509" fill="none" stroke="#2c4270" stroke-width="4" stroke-linecap="round" stroke-linejoin="round"/>
<line x1="1160" y1="500" x2="1184.0" y2="500" stroke="#c0392b" stroke-width="4" stroke-dasharray="3 14" stroke-linecap="round"/>
<line x1="1236.0" y1="500" x2="1246" y2="500" stroke="#c0392b" stroke-width="4" stroke-dasharray="3 14" stroke-linecap="round"/>
<path d="M 1244 491 L 1258 500 L 1244 509" fill="none" stroke="#c0392b" stroke-width="4" stroke-linecap="round" stroke-linejoin="round"/>
<line x1="1197.0" y1="474" x2="1208.0" y2="526" stroke="#c0392b" stroke-width="4" stroke-linecap="round"/>
<line x1="1212.0" y1="474" x2="1223.0" y2="526" stroke="#c0392b" stroke-width="4" stroke-linecap="round"/>
<text x="1210.0" y="422" text-anchor="middle" font-family="'Jost','Inter',system-ui,sans-serif" font-size="22" font-weight="600" fill="#c0392b" letter-spacing="0">the chain breaks here</text>
<text x="96" y="845" text-anchor="start" font-family="'Jost','Inter',system-ui,sans-serif" font-size="24" font-weight="400" fill="#5e6675" letter-spacing="0" font-style="italic">Efficiency created at the individual level did not convert into organizational productivity.</text>
<text x="96" y="885" text-anchor="start" font-family="'Jost','Inter',system-ui,sans-serif" font-size="20" font-weight="400" fill="#a8adb7" letter-spacing="0.02em">Source: Bank of Korea, BOK Issue Note 2026-12</text>
</svg>