<svg width="153" height="36" viewBox="0 0 153 36" fill="none" xmlns="http://www.w3.org/2000/svg">
<path d="M16.4566 2.53549C17.0074 2.53549 17.5502 2.6732 18.0443 2.95673L28.5832 9.04029C29.5634 9.60733 30.1709 10.6523 30.1709 11.7864V23.9535C30.1709 25.0876 29.5634 26.1326 28.5832 26.6996L18.0443 32.7832C17.5502 33.0667 17.0074 33.2044 16.4566 33.2044C15.9057 33.2044 15.363 33.0667 14.8689 32.7832L4.32996 26.6996C3.34978 26.1326 2.74224 25.0876 2.74224 23.9535V11.7864C2.74224 10.6523 3.34978 9.60733 4.32996 9.04029L14.8689 2.95673C15.363 2.6732 15.9057 2.53549 16.4566 2.53549ZM16.4566 0C15.4602 0 14.4719 0.26732 13.6052 0.761458L3.06626 6.84502C1.30843 7.8576 0.214844 9.75314 0.214844 11.7864V23.9535C0.214844 25.9868 1.30843 27.8742 3.06626 28.8949L13.6052 34.9785C14.4719 35.4807 15.4602 35.7399 16.4566 35.7399C17.453 35.7399 18.4412 35.4726 19.308 34.9785L29.8469 28.8949C31.6047 27.8823 32.6983 25.9868 32.6983 23.9535V11.7864C32.6983 9.75314 31.6047 7.8657 29.8469 6.84502L19.308 0.761458C18.4412 0.25922 17.453 0 16.4566 0Z" fill="#0B1345"/>
<path d="M31.3763 25.343C32.2015 23.6798 26.1812 19.0124 17.9295 14.918C9.67778 10.8236 2.31947 8.85275 1.49423 10.5159C0.66899 12.1791 6.68932 16.8465 14.941 20.9409C23.1927 25.0353 30.551 27.0062 31.3763 25.343Z" stroke="#0B1345" stroke-width="2.00895" stroke-miterlimit="10"/>
<path d="M18.041 20.8937C26.107 16.5288 31.9261 11.6602 31.0382 10.0194C30.1503 8.37868 22.8917 10.5871 14.8256 14.952C6.75955 19.317 0.940484 24.1856 1.82838 25.8263C2.71627 27.4671 9.9749 25.2587 18.041 20.8937Z" stroke="#0B1345" stroke-width="2.00895" stroke-miterlimit="10"/>
<path d="M16.457 35.041V2.03906" stroke="#0B1345" stroke-width="2.00895" stroke-miterlimit="10"/>
<path d="M47.4925 9.59766H52.2232L58.4283 26.7629H55.666C55.0179 26.7629 54.4347 26.3497 54.2241 25.7341L53.4707 23.5469H46.2369L45.4835 25.7341C45.2729 26.3497 44.6978 26.7629 44.0416 26.7629H41.2793L47.4844 9.59766H47.4925ZM52.5473 20.8332L49.9713 13.3563H49.7525L47.1765 20.8332H52.5473Z" fill="#0B1345"/>
<path d="M61.1074 9.59766H68.0497C72.6103 9.59766 74.595 11.9792 74.595 15.3329C74.595 17.7631 73.5419 19.7234 71.1603 20.5821L74.7651 26.7629H72.4402C71.6301 26.7629 70.8849 26.3335 70.4879 25.6288L67.8714 21.0519H64.7851V26.7629H61.1074V9.59766ZM67.9281 17.8603C69.9371 17.8603 70.8201 16.8558 70.8201 15.3329C70.8201 13.81 69.9371 12.7812 67.9281 12.7812H64.7851V17.8603H67.9281Z" fill="#0B1345"/>
<path d="M77.6816 9.60156H81.0272C81.8049 9.60156 82.5015 10.0876 82.7688 10.8167L86.811 21.7687L90.8775 10.8167C91.1449 10.0876 91.8415 9.60966 92.6192 9.60966H95.9647V26.7749H92.2871V15.9605H92.1655L88.1962 26.7749H85.4501L81.5051 15.9605H81.3836V26.7749H77.7059V9.60156H77.6816Z" fill="#0B1345"/>
<path d="M99.6094 9.60156H103.287V26.7668H99.6094V9.60156Z" fill="#0B1345"/>
<path d="M106.941 9.60156H110.619V23.5832H118.517V26.7749H106.941V9.60156Z" fill="#0B1345"/>
<path d="M121.441 9.60156H125.119V23.5832H133.017V26.7749H121.441V9.60156Z" fill="#0B1345"/>
<path d="M141.28 9.60156H146.01L152.215 26.7668H149.453C148.805 26.7668 148.222 26.3536 148.011 25.738L147.258 23.5508H140.024L139.271 25.738C139.06 26.3536 138.485 26.7668 137.829 26.7668H135.066L141.271 9.60156H141.28ZM146.334 20.8371L143.758 13.3602H143.54L140.964 20.8371H146.334Z" fill="#0B1345"/>
</svg>
