<?xml version="1.0" encoding="UTF-8"?><svg id="Layer_2" xmlns="http://www.w3.org/2000/svg" xmlns:xlink="http://www.w3.org/1999/xlink" viewBox="0 0 220.05 43.74"><defs><style>.cls-1{fill:url(#linear-gradient);}.cls-1,.cls-2{stroke-width:0px;}.cls-2{fill:#f9f9f9;}</style><linearGradient id="linear-gradient" x1="24.74" y1="50.37" x2="37.73" y2="1.89" gradientUnits="userSpaceOnUse"><stop offset=".25" stop-color="#5b4c97"/><stop offset=".34" stop-color="#634e99"/><stop offset=".48" stop-color="#7c559f"/><stop offset=".66" stop-color="#a361a8"/><stop offset=".88" stop-color="#da70b6"/><stop offset="1" stop-color="#fe7bbf"/></linearGradient></defs><g id="web-mockup-01"><path class="cls-2" d="m78.49,35.18l-1.87-6.21h-9.37l-1.87,6.21h-3.45l7.94-24.74h4.31l7.9,24.74h-3.59Zm-10.41-8.98h7.72l-3.84-12.93-3.88,12.93Zm32.43,8.98h-2.84l-.25-2.94c-.72,1.17-1.54,2.03-2.48,2.57-.93.54-2.07.81-3.41.81-1.65,0-2.94-.5-3.88-1.51-.93-1.01-1.4-2.43-1.4-4.27v-13.57h3.3v13.21c0,1.29.23,2.21.68,2.75.46.54,1.2.81,2.23.81,1.84,0,3.42-1.09,4.74-3.27v-13.5h3.3v18.92Zm17.09-.86c-1.25.86-2.66,1.29-4.24,1.29s-2.86-.46-3.75-1.38-1.35-2.26-1.35-4v-11.42h-3.3v-2.55h3.3v-4.27l3.3-.39v4.67h4.49l-.36,2.55h-4.13v11.28c0,.98.17,1.69.52,2.14.35.44.93.67,1.74.67.74,0,1.58-.25,2.51-.75l1.26,2.19Zm16.89-15.84c1.47,1.77,2.21,4.18,2.21,7.22,0,1.96-.34,3.69-1.01,5.19s-1.64,2.66-2.91,3.48c-1.27.83-2.78,1.24-4.53,1.24-2.66,0-4.73-.88-6.21-2.66-1.48-1.77-2.23-4.18-2.23-7.22,0-1.96.33-3.69,1.01-5.19.67-1.5,1.64-2.66,2.91-3.48,1.27-.83,2.79-1.24,4.56-1.24,2.66,0,4.72.89,6.19,2.66Zm-11.11,7.25c0,4.81,1.63,7.22,4.88,7.22s4.88-2.42,4.88-7.25-1.62-7.22-4.85-7.22-4.92,2.42-4.92,7.25Zm32.86,9.44l-1.87-6.21h-9.37l-1.87,6.21h-3.45l7.94-24.74h4.31l7.9,24.74h-3.59Zm-10.41-8.98h7.72l-3.84-12.93-3.88,12.93Zm19.23,8.31c-.71-.73-1.06-1.75-1.06-3.07V8.64l3.3-.4v23.13c0,.53.09.91.27,1.15s.49.36.92.36c.45,0,.86-.07,1.22-.22l.86,2.3c-.79.43-1.66.65-2.62.65-1.22,0-2.18-.37-2.89-1.09Zm13.66-26.7c.43.43.65.97.65,1.62s-.21,1.18-.65,1.6c-.43.42-.99.63-1.69.63s-1.22-.21-1.65-.63c-.43-.42-.65-.95-.65-1.6s.21-1.19.65-1.62c.43-.43.98-.65,1.65-.65s1.26.22,1.69.65Zm0,8.44v18.92h-3.3v-18.92h3.3Zm22.8.86c-.72.24-1.51.39-2.37.47-.86.07-1.92.11-3.16.11,2.23,1.01,3.34,2.6,3.34,4.78,0,1.89-.65,3.44-1.94,4.63-1.29,1.2-3.05,1.8-5.28,1.8-.86,0-1.66-.12-2.41-.36-.29.19-.51.45-.68.77-.17.32-.25.65-.25.99,0,1.03.83,1.54,2.48,1.54h3.02c1.27,0,2.39.23,3.38.68s1.74,1.08,2.28,1.87.81,1.69.81,2.69c0,1.84-.75,3.26-2.26,4.25-1.51.99-3.71,1.49-6.61,1.49-2.04,0-3.65-.21-4.83-.63-1.19-.42-2.03-1.05-2.53-1.89-.5-.84-.75-1.92-.75-3.23h2.98c0,.77.14,1.37.43,1.81.29.44.8.78,1.54,1.01.74.23,1.79.34,3.16.34,1.99,0,3.41-.25,4.25-.74.85-.49,1.28-1.23,1.28-2.21,0-.89-.34-1.56-1.01-2.01-.67-.45-1.6-.68-2.8-.68h-2.98c-1.6,0-2.82-.34-3.65-1.02-.83-.68-1.24-1.54-1.24-2.57,0-.62.18-1.22.54-1.79.36-.57.87-1.09,1.54-1.54-1.1-.58-1.91-1.29-2.42-2.14s-.77-1.89-.77-3.11.32-2.41.95-3.41c.63-1.01,1.51-1.79,2.62-2.35s2.35-.84,3.72-.84c1.48.02,2.73-.03,3.73-.16,1-.13,1.84-.31,2.5-.54s1.47-.56,2.42-.99l.97,2.98Zm-12.51,2.24c-.68.78-1.02,1.8-1.02,3.07s.35,2.33,1.04,3.11c.69.78,1.67,1.17,2.94,1.17s2.28-.38,2.96-1.13c.68-.75,1.02-1.81,1.02-3.18,0-2.8-1.35-4.2-4.06-4.2-1.25,0-2.21.39-2.89,1.17Zm29.59-1.99c.97,1.03,1.45,2.44,1.45,4.24v13.57h-3.3v-13.11c0-1.34-.25-2.29-.75-2.84-.5-.55-1.25-.83-2.23-.83s-1.89.29-2.66.86c-.77.57-1.49,1.4-2.16,2.48v13.43h-3.3v-18.92h2.84l.29,2.8c.67-1,1.5-1.79,2.5-2.37.99-.57,2.09-.86,3.29-.86,1.72,0,3.07.51,4.04,1.54Z"/><path class="cls-1" d="m30.69,0L8.35,43.74H0L22.34,0h8.35Zm4.35,8.51h-8.35l17.99,35.23h8.35L35.04,8.51Zm-9.01,17.61h-8.35l9,17.61h8.35l-8.99-17.61Z"/></g></svg>