<?xml version="1.0" encoding="UTF-8"?>
<svg id="Layer_1" xmlns="http://www.w3.org/2000/svg" version="1.1" viewBox="0 0 962.97 354.13">
  <!-- Generator: Adobe Illustrator 30.0.0, SVG Export Plug-In . SVG Version: 2.1.1 Build 123)  -->
  <defs>
    <style>
      .st0 {
        fill: #fff;
      }
    </style>
  </defs>
  <g>
    <path class="st0" d="M268.82,75.97h-20.72v102.14c0,2.96,2.47,5.43,5.43,5.43h64.64v-18.75h-49.34v-88.82Z"/>
    <path class="st0" d="M134.62,75.97h-37.99v18.75h24.18v24.18h18.75v-37.5c0-2.96-2.47-5.43-5.43-5.43h.49Z"/>
    <path class="st0" d="M121.29,164.29h-24.18v18.75h37.99c2.96,0,5.43-2.47,5.43-5.43v-37.99h-18.75v24.18l-.49.49Z"/>
    <path class="st0" d="M51.72,140.12h-18.75v37.99c0,2.96,2.47,5.43,5.43,5.43h37.99v-18.75h-24.67v-24.67Z"/>
    <rect class="st0" x="76.29" y="119.29" width="20.93" height="20.93" transform="translate(-66.34 99.35) rotate(-45)"/>
    <path class="st0" d="M51.72,94.72h24.18v-18.75h-37.5c-2.96,0-5.43,2.47-5.43,5.43v37.99h18.75v-24.67Z"/>
    <path class="st0" d="M611.75,81.4v96.71c0,2.96,2.47,5.43,5.43,5.43h56.25v-18.75h-41.94v-69.57h41.94v-19.24h-56.25c-2.96,0-5.43,2.47-5.43,5.43"/>
    <rect class="st0" x="652.7" y="119.39" width="20.72" height="20.72"/>
    <polygon class="st0" points="570.79 75.97 547.6 75.97 515.04 120.87 510.6 120.87 510.6 75.97 489.87 75.97 489.87 183.54 510.6 183.54 510.6 138.14 515.04 138.14 548.1 183.54 571.29 183.54 532.8 129.26 570.79 75.97"/>
    <path class="st0" d="M778.52,75.97h-45.39c-2.96,0-5.43,2.47-5.43,5.43v102.14h20.72v-45.39h5.43l24.67,45.39h22.7l-25.16-45.39h2.47c13.82,0,24.67-10.85,24.67-24.67v-12.83c0-13.82-10.85-24.67-24.67-24.67ZM784.44,111v1.97c0,4.93-3.45,7.89-9.37,7.89h-27.14v-26.15h27.14c5.92,0,9.37,2.96,9.37,7.9v8.39Z"/>
    <path class="st0" d="M415.37,75.97h-27.14c-2.47,0-4.44,1.48-5.43,3.95l-26.64,103.62h20.23l5.92-26.15h37.01l5.92,26.15h21.22l-26.15-103.62c-.49-2.47-2.96-3.95-5.43-3.95h.49ZM386.75,140.12l10.36-44.9h7.9l10.36,44.9h-29.11.49Z"/>
    <path class="st0" d="M904.34,79.92c-.49-2.47-2.96-3.95-5.43-3.95h-27.14c-2.47,0-4.44,1.48-5.43,3.95l-26.64,103.62h20.23l5.92-26.15h37.01l5.92,26.15h21.22l-26.64-103.62h.99ZM870.79,140.12l10.36-44.9h7.9l10.36,44.9h-29.11.49Z"/>
  </g>
  <g>
    <path class="st0" d="M279.99,267.37h-6.05l-2.58-7.53h-14.79l-2.58,7.53h-6.05l13.74-37.47h4.58l13.74,37.47ZM258.2,255h11.53l-5.79-16.63-5.74,16.63Z"/>
    <path class="st0" d="M308.99,229.58c3.47,0,6.4.99,8.79,2.97,2.38,1.98,3.91,4.83,4.58,8.55h-5.79c-.42-1.93-1.26-3.48-2.53-4.65-1.26-1.18-2.95-1.77-5.05-1.77-2.28,0-4.12.76-5.53,2.27-.49.49-.88,1.04-1.16,1.63-.28.6-.51,1.32-.68,2.18-.18.86-.29,1.92-.34,3.19-.05,1.26-.08,2.82-.08,4.68s.03,3.42.08,4.69c.05,1.26.16,2.32.34,3.18.17.86.4,1.59.68,2.18.28.6.67,1.14,1.16,1.63,1.4,1.51,3.25,2.26,5.53,2.26,2.11,0,3.79-.59,5.05-1.76,1.26-1.18,2.11-2.72,2.53-4.65h5.79c-.67,3.72-2.2,6.57-4.6,8.55-2.4,1.98-5.32,2.97-8.76,2.97-2.07,0-3.9-.32-5.47-.97-1.58-.65-2.98-1.59-4.21-2.82-.91-.91-1.62-1.86-2.13-2.84-.51-.98-.89-2.06-1.13-3.24-.25-1.17-.4-2.51-.45-4-.05-1.49-.08-3.22-.08-5.19s.03-3.69.08-5.18c.05-1.49.2-2.82.45-4,.24-1.17.62-2.25,1.13-3.23.51-.98,1.22-1.93,2.13-2.84,1.22-1.23,2.63-2.17,4.21-2.82,1.58-.65,3.4-.97,5.47-.97"/>
    <path class="st0" d="M334.68,243.37c.91-1.02,1.96-1.77,3.15-2.26,1.19-.49,2.47-.74,3.84-.74s2.6.21,3.71.63c1.1.42,2.06,1.02,2.87,1.79,1.02,1.02,1.72,2.15,2.11,3.4.39,1.25.58,2.62.58,4.13v17.05h-5.37v-16.26c0-2.07-.52-3.58-1.55-4.53-1.04-.95-2.31-1.42-3.82-1.42s-2.81.48-3.9,1.45c-1.09.97-1.63,2.47-1.63,4.5v16.26h-5.37v-37.47h5.37v13.47Z"/>
    <path class="st0" d="M363.15,255.58c0,2.31.58,4.14,1.73,5.47,1.16,1.33,2.84,2,5.05,2,1.51,0,2.73-.22,3.66-.66.93-.44,1.87-1.13,2.82-2.08l3.42,3.21c-.7.7-1.4,1.31-2.08,1.82-.68.51-1.42.94-2.21,1.29-.79.35-1.65.62-2.58.79s-1.97.26-3.13.26c-1.68,0-3.26-.24-4.71-.71-1.46-.47-2.71-1.25-3.79-2.32-1.07-1.07-1.92-2.48-2.55-4.24-.63-1.75-.95-3.89-.95-6.42,0-4.39,1.03-7.76,3.08-10.11,2.05-2.35,4.8-3.53,8.23-3.53,1.79,0,3.39.31,4.79.92,1.4.61,2.59,1.49,3.55,2.63.97,1.14,1.7,2.51,2.21,4.11.51,1.6.76,3.36.76,5.29v2.26h-17.31ZM375.15,251.84c-.07-.81-.14-1.47-.21-1.97-.07-.51-.24-1.06-.53-1.66-.46-1.02-1.13-1.83-2.03-2.45-.89-.61-1.97-.92-3.24-.92s-2.4.31-3.29.92c-.9.62-1.57,1.43-2.02,2.45-.29.6-.46,1.15-.53,1.66-.07.51-.13,1.17-.16,1.97h12Z"/>
    <path class="st0" d="M398.25,240.37c1.86,0,3.47.29,4.84.87,1.37.58,2.69,1.53,3.95,2.87l-3.68,3.58c-.84-.91-1.64-1.56-2.39-1.95-.75-.39-1.66-.58-2.71-.58-2.11,0-3.75.79-4.95,2.37-.6.74-1.01,1.61-1.23,2.61-.23,1-.34,2.29-.34,3.87s.11,2.88.34,3.89c.22,1.02.64,1.9,1.23,2.63,1.19,1.58,2.84,2.37,4.95,2.37,1.05,0,1.96-.19,2.71-.58s1.55-1.04,2.39-1.95l3.68,3.53c-1.26,1.33-2.58,2.3-3.95,2.89-1.37.6-2.98.9-4.84.9-1.51,0-2.97-.25-4.4-.74-1.42-.49-2.68-1.28-3.79-2.37-1.1-1.09-2-2.5-2.69-4.24-.68-1.74-1.03-3.85-1.03-6.34s.34-4.61,1.03-6.34c.68-1.74,1.58-3.14,2.69-4.21,1.11-1.07,2.37-1.85,3.79-2.34,1.42-.49,2.89-.74,4.4-.74"/>
    <polygon class="st0" points="418.62 253 428.99 240.68 435.52 240.68 426.25 251.16 436.67 267.37 430.04 267.37 422.57 255.05 418.62 259.52 418.62 267.37 413.25 267.37 413.25 229.89 418.62 229.89 418.62 253"/>
    <path class="st0" d="M469.57,229.89c1.82,0,3.47.29,4.95.87,1.47.58,2.74,1.37,3.79,2.37,1.05,1,1.86,2.2,2.42,3.61.56,1.4.84,2.91.84,4.52s-.28,3.16-.84,4.53c-.56,1.37-1.37,2.56-2.42,3.58-1.05,1.02-2.32,1.81-3.79,2.37-1.47.56-3.12.84-4.95.84h-8.53v14.79h-5.68v-37.47h14.21ZM461.04,235v12.48h8.21c2,0,3.61-.53,4.82-1.61,1.21-1.07,1.82-2.6,1.82-4.61s-.6-3.54-1.82-4.63c-1.21-1.09-2.82-1.64-4.82-1.64h-8.21Z"/>
    <path class="st0" d="M497.14,240.37c1.83,0,3.4.3,4.71.89,1.32.6,2.41,1.35,3.29,2.26,1.26,1.33,2.11,2.85,2.53,4.55.42,1.7.63,3.68.63,5.92s-.21,4.27-.63,5.97c-.42,1.7-1.26,3.22-2.53,4.55-.88.91-1.97,1.67-3.29,2.26-1.32.6-2.89.89-4.71.89s-3.39-.3-4.68-.89c-1.3-.6-2.39-1.35-3.26-2.26-1.26-1.33-2.11-2.85-2.53-4.55-.42-1.7-.63-3.69-.63-5.97s.21-4.22.63-5.92c.42-1.7,1.26-3.22,2.53-4.55.88-.91,1.96-1.67,3.26-2.26,1.29-.6,2.86-.89,4.68-.89M497.14,245.16c-1.58,0-2.88.51-3.9,1.53-.81.81-1.31,1.86-1.52,3.16-.21,1.3-.32,2.68-.32,4.16s.11,2.86.32,4.15c.21,1.3.71,2.35,1.52,3.16,1.05,1.05,2.35,1.58,3.9,1.58s2.89-.53,3.95-1.58c.81-.81,1.32-1.86,1.53-3.16.21-1.29.32-2.68.32-4.15s-.11-2.86-.32-4.16c-.21-1.3-.72-2.35-1.53-3.16-1.02-1.02-2.33-1.53-3.95-1.53"/>
    <path class="st0" d="M522.14,235.42h-5.68v-5.68h5.68v5.68ZM521.99,267.37h-5.37v-26.69h5.37v26.69Z"/>
    <path class="st0" d="M543.93,240.37c1.37,0,2.61.21,3.71.63,1.1.42,2.06,1.02,2.87,1.79,1.02,1.02,1.72,2.15,2.1,3.4.39,1.25.58,2.62.58,4.13v17.05h-5.37v-16.26c0-2.07-.52-3.58-1.55-4.53-1.04-.95-2.31-1.42-3.82-1.42s-2.81.48-3.9,1.45c-1.09.97-1.63,2.47-1.63,4.5v16.26h-5.37v-26.69h5.27v2.68c.91-1.02,1.99-1.77,3.23-2.26s2.54-.74,3.87-.74"/>
    <path class="st0" d="M567.46,240.68h5.16v4.11h-5.16v14.89c0,2.07.98,3.11,2.95,3.11h2.21v4.58h-3.21c-1.26,0-2.35-.2-3.26-.6-.92-.4-1.67-.95-2.26-1.63-.6-.68-1.04-1.47-1.34-2.37-.3-.9-.45-1.83-.45-2.82v-15.16h-3.05v-4.11h3.05v-7.63h5.36v7.63Z"/>
    <path class="st0" d="M604.82,229.58c3.47,0,6.4.99,8.79,2.97,2.38,1.98,3.91,4.83,4.58,8.55h-5.79c-.42-1.93-1.26-3.48-2.53-4.65-1.26-1.18-2.95-1.77-5.05-1.77-2.28,0-4.12.76-5.53,2.27-.49.49-.88,1.04-1.16,1.63-.28.6-.51,1.32-.68,2.18-.18.86-.29,1.92-.34,3.19-.05,1.26-.08,2.82-.08,4.68s.03,3.42.08,4.69c.05,1.26.16,2.32.34,3.18.17.86.4,1.59.68,2.18.28.6.67,1.14,1.16,1.63,1.4,1.51,3.25,2.26,5.53,2.26,2.11,0,3.79-.59,5.05-1.76,1.26-1.18,2.11-2.72,2.53-4.65h5.79c-.67,3.72-2.2,6.57-4.6,8.55-2.4,1.98-5.32,2.97-8.76,2.97-2.07,0-3.9-.32-5.47-.97-1.58-.65-2.98-1.59-4.21-2.82-.91-.91-1.62-1.86-2.13-2.84-.51-.98-.89-2.06-1.13-3.24-.25-1.17-.4-2.51-.45-4-.05-1.49-.08-3.22-.08-5.19s.03-3.69.08-5.18c.05-1.49.2-2.82.45-4,.24-1.17.62-2.25,1.13-3.23.51-.98,1.22-1.93,2.13-2.84,1.22-1.23,2.63-2.17,4.21-2.82,1.58-.65,3.4-.97,5.47-.97"/>
    <path class="st0" d="M634.45,240.37c1.83,0,3.4.3,4.71.89,1.32.6,2.41,1.35,3.29,2.26,1.26,1.33,2.11,2.85,2.53,4.55.42,1.7.63,3.68.63,5.92s-.21,4.27-.63,5.97c-.42,1.7-1.26,3.22-2.53,4.55-.88.91-1.97,1.67-3.29,2.26-1.32.6-2.89.89-4.71.89s-3.39-.3-4.68-.89c-1.3-.6-2.39-1.35-3.26-2.26-1.26-1.33-2.11-2.85-2.53-4.55-.42-1.7-.63-3.69-.63-5.97s.21-4.22.63-5.92c.42-1.7,1.26-3.22,2.53-4.55.88-.91,1.96-1.67,3.26-2.26,1.29-.6,2.86-.89,4.68-.89M634.45,245.16c-1.58,0-2.88.51-3.9,1.53-.81.81-1.31,1.86-1.52,3.16-.21,1.3-.32,2.68-.32,4.16s.11,2.86.32,4.15c.21,1.3.71,2.35,1.52,3.16,1.05,1.05,2.35,1.58,3.9,1.58s2.89-.53,3.95-1.58c.81-.81,1.32-1.86,1.53-3.16.21-1.29.32-2.68.32-4.15s-.11-2.86-.32-4.16c-.21-1.3-.72-2.35-1.53-3.16-1.02-1.02-2.33-1.53-3.95-1.53"/>
    <path class="st0" d="M681.19,240.37c1.37,0,2.63.21,3.79.63,1.16.42,2.14,1.02,2.95,1.79,1.02,1.02,1.74,2.15,2.18,3.4s.66,2.62.66,4.13v17.05h-5.37v-16.26c0-2.07-.52-3.58-1.55-4.53-1.04-.95-2.31-1.42-3.82-1.42-.74,0-1.44.11-2.11.34-.67.23-1.26.58-1.76,1.05-.51.47-.92,1.07-1.21,1.79-.3.72-.45,1.55-.45,2.5v16.52h-5.37v-16.26c0-2.07-.52-3.58-1.55-4.53-1.04-.95-2.31-1.42-3.82-1.42s-2.81.48-3.9,1.45c-1.09.97-1.63,2.47-1.63,4.5v16.26h-5.37v-26.69h5.27v2.68c.91-.98,1.99-1.73,3.23-2.24,1.25-.51,2.54-.76,3.87-.76,3.37,0,5.9,1.3,7.58,3.9,2.14-2.6,4.93-3.9,8.37-3.9"/>
    <path class="st0" d="M711.35,240.37c1.37,0,2.62.21,3.74.63,1.12.42,2.05,1,2.79,1.74.63.67,1.15,1.42,1.55,2.26.4.84.71,1.75.92,2.71.21.96.35,1.98.42,3.05.07,1.07.11,2.15.11,3.24s-.03,2.17-.11,3.24c-.07,1.07-.21,2.1-.42,3.07-.21.98-.52,1.9-.92,2.74-.4.84-.92,1.6-1.55,2.26-.74.74-1.66,1.32-2.76,1.74-1.1.42-2.34.63-3.71.63-1.44,0-2.72-.21-3.84-.63-1.12-.42-2.18-1.23-3.15-2.42v13.52h-5.37v-37.47h5.26v2.84c1.01-1.23,2.08-2.06,3.21-2.5,1.12-.44,2.4-.66,3.84-.66M709.98,245.16c-1.23,0-2.21.24-2.95.71-.74.47-1.3,1.11-1.69,1.92-.39.81-.64,1.74-.76,2.82-.12,1.07-.18,2.2-.18,3.4s.06,2.33.18,3.4c.12,1.07.38,2.02.76,2.84.39.83.95,1.48,1.69,1.95.74.47,1.72.71,2.95.71s2.16-.24,2.89-.71c.74-.47,1.3-1.12,1.69-1.95.39-.82.64-1.77.76-2.84.12-1.07.18-2.2.18-3.4s-.06-2.32-.18-3.4c-.12-1.07-.38-2.01-.76-2.82-.39-.81-.95-1.45-1.69-1.92-.74-.47-1.7-.71-2.89-.71"/>
    <path class="st0" d="M736.77,240.37c3.72,0,6.48.77,8.29,2.32,1.81,1.54,2.71,3.82,2.71,6.84v17.84h-5.26v-2.42c-.98.98-2,1.68-3.05,2.11-1.05.42-2.4.63-4.05.63s-3.1-.2-4.23-.61c-1.14-.4-2.11-1.01-2.92-1.82-1.4-1.47-2.11-3.39-2.11-5.74s.77-4.08,2.32-5.52c1.54-1.44,3.86-2.16,6.94-2.16h7v-1.9c0-1.72-.45-2.98-1.34-3.79-.89-.81-2.39-1.21-4.5-1.21-1.44,0-2.58.2-3.42.6-.84.4-1.65,1.08-2.42,2.03l-3.47-3.32c.63-.74,1.27-1.35,1.92-1.84s1.35-.9,2.1-1.21c.75-.31,1.58-.53,2.47-.66.9-.12,1.9-.18,3.03-.18M736.24,255.58c-3.26,0-4.89,1.28-4.89,3.84,0,1.23.4,2.17,1.19,2.82.79.65,2.07.97,3.86.97.95,0,1.82-.09,2.61-.26.79-.18,1.53-.6,2.24-1.26.77-.74,1.16-2.05,1.16-3.95v-2.15h-6.16Z"/>
    <path class="st0" d="M768.4,240.37c1.37,0,2.61.21,3.71.63,1.11.42,2.06,1.02,2.87,1.79,1.02,1.02,1.72,2.15,2.1,3.4.39,1.25.58,2.62.58,4.13v17.05h-5.37v-16.26c0-2.07-.52-3.58-1.55-4.53-1.04-.95-2.31-1.42-3.82-1.42s-2.81.48-3.9,1.45c-1.09.97-1.63,2.47-1.63,4.5v16.26h-5.37v-26.69h5.27v2.68c.91-1.02,1.99-1.77,3.23-2.26s2.54-.74,3.87-.74"/>
    <path class="st0" d="M794.24,272.89c-.49,1.4-1.14,2.51-1.95,3.32-.74.74-1.57,1.24-2.52,1.52-.95.28-1.93.42-2.95.42h-2.16v-4.84h1.37c1.12,0,1.95-.2,2.47-.61.53-.4.98-1.15,1.37-2.24l1.52-4.37-9.31-25.42h5.69l6.37,18.79,6.21-18.79h5.74l-11.84,32.21Z"/>
  </g>
</svg>