<?xml version="1.0" encoding="utf-8"?>
<!-- Generator: Adobe Illustrator 19.0.0, SVG Export Plug-In . SVG Version: 6.00 Build 0)  -->
<svg version="1.1" id="Layer_1" xmlns="http://www.w3.org/2000/svg" xmlns:xlink="http://www.w3.org/1999/xlink" x="0px" y="0px"
	 width="260px" height="46.2px" viewBox="0 0 260 46.2" style="enable-background:new 0 0 260 46.2;" xml:space="preserve">
<style type="text/css">
	.st0{fill:#B28A3B;}
</style>
<g>
	<path class="st0" d="M23.1,0C10.3,0,0,10.3,0,23.1c0,12.8,10.3,23.1,23.1,23.1c12.8,0,23.1-10.3,23.1-23.1C46.2,10.3,35.8,0,23.1,0
		z M41.1,15.2h-3l-8.4,23.2h-1.1l-4.7-13.1c-0.3-0.7-0.6-1.5-0.8-2.2l-5.5,15.3h-1.2L8,15.2H5v-0.9h10.2v0.9H12l6.4,18.2l4.1-11.5
		l-0.1-0.5c-2-6.3-2.4-10.6-1.1-12.5c0.7-1,1.5-1.1,2-1.1c0.2,0,0.4,0,0.4,0l0,0c0.3,0,0.5,0.2,0.7,0.4c0.7,0.7,1.1,2.4,1.1,4.6
		c0,1.7-0.4,3.6-0.8,5.1l5.8,15.4l6.6-18.2h-3.4v-0.9h7.4V15.2z"/>
	<path class="st0" d="M24.1,8.6c-0.1-0.2-0.3-0.2-0.4-0.2c-0.2,0-0.4,0.1-0.6,0.4c-0.6,1.4,0.3,4.9,1.2,8.1l0.1,0.2
		c0.3-1.3,0.6-2.9,0.6-4.2C25,10.8,24.7,9.2,24.1,8.6z"/>
	<path class="st0" d="M109.3,27.8c0-1.5-0.5-2.7-1.4-3.4c-0.9-0.7-2.1-1.1-3.5-1.1c-0.9,0-1.7,0.1-2.3,0.4c-0.6,0.3-1.2,0.6-1.6,1
		c-0.4,0.4-0.8,0.8-1.1,1.2c-0.1,0.1-0.1,0.2-0.2,0.3V14.5h-5.6v0.9H96v21.3h-2.4v0.9h8v-0.9h-2.4v-6.9c0-0.8,0.1-1.6,0.4-2.2
		c0.3-0.7,0.6-1.3,1-1.8c0.4-0.5,1-0.9,1.5-1.2c0.6-0.3,1.2-0.4,1.8-0.4c0.7,0,1.3,0.2,1.6,0.7c0.4,0.5,0.5,1.1,0.5,1.9v9.9h-2.4
		v0.9h8v-0.9h-2.4V27.8z"/>
	<path class="st0" d="M192.5,18.5c0.5,0,1-0.2,1.3-0.6c0.4-0.4,0.6-0.8,0.6-1.3c0-0.5-0.2-1-0.6-1.3c-0.4-0.4-0.8-0.6-1.3-0.6
		c-0.5,0-1,0.2-1.3,0.6c-0.4,0.4-0.6,0.8-0.6,1.3c0,0.5,0.2,1,0.6,1.3C191.5,18.3,192,18.5,192.5,18.5z"/>
	<path class="st0" d="M75.6,36.3c-0.2,0.2-0.4,0.4-0.7,0.4c-0.3,0.1-0.5,0.1-0.8,0.1c-0.5,0-0.9-0.2-1.1-0.5
		c-0.3-0.4-0.4-0.9-0.6-1.4c-0.1-0.3-0.1-0.8-0.2-1.3c0-0.5-0.1-1.1-0.1-1.6c0-0.6-0.1-1.1-0.1-1.7c-0.1-0.5-0.1-1-0.3-1.5
		c-0.2-0.7-0.6-1.4-1.1-1.8c-0.5-0.5-1.1-0.8-1.7-1.1c-0.6-0.3-1.2-0.5-1.8-0.6c-0.1,0-0.1,0-0.2,0c0.7-0.2,1.3-0.4,1.8-0.7
		c0.8-0.4,1.3-0.9,1.7-1.5c0.4-0.5,0.7-1.1,0.8-1.6c0.1-0.5,0.2-0.9,0.2-1.3c0-0.7-0.2-1.4-0.5-2.1c-0.3-0.7-0.9-1.4-1.6-2
		c-0.8-0.7-1.8-1.1-2.7-1.2c-0.9-0.1-2.1-0.2-3.3-0.2c-0.3,0-0.5,0-0.8,0c-0.2,0-0.5,0-0.8,0c-0.2,0-0.5,0-0.7,0c-0.2,0-0.5,0-0.7,0
		h-6.2v0.9h3.5v21h-3.5v0.9h10.6v-0.9h-3.5V25.9h2.9c0.3,0,0.8,0,1.2,0.1c0.4,0,0.9,0.2,1.3,0.5c0.4,0.2,0.8,0.7,1.1,1.2
		c0.3,0.6,0.5,1.3,0.6,2.4l0.2,2.9c0.1,0.8,0.2,1.5,0.3,2.1c0.2,0.6,0.4,1.2,0.8,1.6c0.4,0.4,0.8,0.8,1.4,1c0.6,0.2,1.3,0.3,2.2,0.3
		c0.4,0,0.8,0,1.2-0.1c0.3-0.1,0.6-0.1,0.8-0.2c0.2-0.1,0.4-0.2,0.6-0.3c0.1-0.1,0.3-0.2,0.4-0.3l0.2-0.1l-0.6-0.7L75.6,36.3z
		 M66.6,24.1c-0.3,0.3-0.7,0.6-1.1,0.7c-0.5,0.1-1,0.2-1.5,0.2h-2.7v-9.3c0.2,0,0.5,0,0.8,0c0.9,0,1.8,0,2.7,0.1
		c0.5,0.1,1,0.3,1.4,0.6c0.4,0.3,0.8,0.8,1,1.4c0.3,0.6,0.4,1.5,0.4,2.5c0,0.9-0.1,1.7-0.3,2.3C67.2,23.2,66.9,23.7,66.6,24.1z"/>
	<path class="st0" d="M89.1,24.7c-0.6-0.5-1.3-0.8-1.9-1.1c-0.7-0.2-1.3-0.3-2-0.3c-1,0-2,0.2-2.9,0.6c-0.9,0.4-1.7,1-2.3,1.7
		c-0.7,0.7-1.2,1.5-1.6,2.4c-0.4,0.9-0.6,1.8-0.6,2.8c0,1.1,0.2,2.1,0.6,3c0.4,0.9,0.9,1.7,1.6,2.3c0.7,0.6,1.5,1.1,2.4,1.5
		c0.9,0.3,1.9,0.5,3,0.5c1.1,0,2-0.2,2.7-0.5c0.7-0.3,1.2-0.7,1.6-1.2c0.4-0.4,0.7-0.9,0.9-1.4c0.2-0.4,0.3-0.8,0.4-1l0.1-0.2
		l-0.9-0.2l-0.1,0.2c-0.1,0.2-0.2,0.6-0.4,1c-0.2,0.4-0.4,0.7-0.7,1.1c-0.3,0.4-0.8,0.7-1.3,0.9c-0.6,0.3-1.3,0.4-2.2,0.4
		c-0.9,0-1.6-0.2-2.1-0.6c-0.5-0.4-0.9-0.8-1.2-1.4c-0.3-0.6-0.4-1.2-0.5-2c-0.1-0.7-0.1-1.5-0.1-2.1c0-0.3,0-0.6,0-0.8
		c0-0.1,0-0.3,0-0.4h9.7v-0.2c0-1.2-0.2-2.2-0.6-3C90.2,25.8,89.7,25.2,89.1,24.7z M87.6,28.4c0,0.2,0,0.4,0,0.6h-6
		c0-0.6,0.1-1.2,0.2-1.7c0.1-0.6,0.3-1.1,0.6-1.6c0.3-0.4,0.6-0.8,1-1.1c0.4-0.3,1-0.4,1.6-0.4c0.4,0,0.7,0.1,1,0.2
		c0.3,0.1,0.6,0.3,0.8,0.5c0.2,0.2,0.4,0.6,0.5,1c0.1,0.4,0.2,1,0.2,1.7V28.4z"/>
	<path class="st0" d="M225.1,27.8c0-1.5-0.5-2.7-1.4-3.4c-0.9-0.7-2.1-1.1-3.5-1.1c-0.9,0-1.7,0.1-2.3,0.4c-0.6,0.3-1.2,0.6-1.6,1
		c-0.4,0.4-0.8,0.8-1.1,1.2c-0.1,0.1-0.1,0.2-0.2,0.3V14.5h-5.6v0.9h2.4v21.3h-2.4v0.9h8v-0.9H215v-6.9c0-0.8,0.1-1.6,0.4-2.2
		c0.3-0.7,0.6-1.3,1-1.8c0.4-0.5,1-0.9,1.5-1.2c0.6-0.3,1.2-0.4,1.8-0.4c0.7,0,1.3,0.2,1.6,0.7c0.4,0.5,0.5,1.1,0.5,1.9v9.9h-2.4
		v0.9h8v-0.9h-2.4V27.8z"/>
	<path class="st0" d="M244.4,23.7h-5.5v0.9h2.4v7.1c0,0.8-0.1,1.6-0.4,2.3c-0.3,0.7-0.6,1.3-1,1.7c-0.4,0.5-0.8,0.8-1.3,1.1
		c-0.5,0.3-0.9,0.4-1.3,0.4c-0.5,0-0.9-0.1-1.2-0.3c-0.3-0.2-0.5-0.4-0.7-0.7c-0.2-0.3-0.3-0.7-0.4-1.1c-0.1-0.4-0.1-0.9-0.1-1.5
		v-9.9h-5.6v0.9h2.4v8.7c0,0.6,0.1,1.2,0.2,1.6c0.1,0.4,0.2,0.8,0.4,1.1c0.2,0.3,0.3,0.5,0.5,0.7c0.2,0.2,0.4,0.3,0.5,0.4
		c0.3,0.2,0.7,0.4,1.3,0.6c0.5,0.2,1.3,0.3,2.1,0.3c0.7,0,1.4-0.1,1.9-0.3c0.5-0.2,1-0.5,1.4-0.9c0.4-0.4,0.7-0.8,1-1.2
		c0.1-0.2,0.2-0.4,0.3-0.5v2.5h5.5v-0.9h-2.4V23.7z"/>
	<path class="st0" d="M259,30.9c-0.6-0.6-1.5-1.1-2.5-1.4l-2.3-0.8c-0.9-0.3-1.6-0.6-2-0.9c-0.4-0.3-0.6-0.7-0.6-1.3
		c0-0.7,0.2-1.2,0.7-1.6c0.5-0.4,1.2-0.6,2.2-0.6c0.5,0,0.9,0.1,1.3,0.3c0.4,0.2,0.7,0.4,0.9,0.7c0.2,0.3,0.5,0.7,0.6,1.1
		c0.2,0.4,0.4,0.9,0.5,1.3l0.1,0.2h0.7v-4h-0.7l-0.1,0.1c0,0.1-0.1,0.1-0.3,0.1c-0.2,0-0.4,0-0.5-0.1c-0.2-0.1-0.4-0.2-0.6-0.2
		c-0.2-0.1-0.5-0.1-0.8-0.2c-0.3-0.1-0.7-0.1-1.2-0.1c-0.7,0-1.3,0.1-1.9,0.3c-0.6,0.2-1.1,0.5-1.5,0.9c-0.4,0.4-0.8,0.9-1,1.4
		c-0.2,0.5-0.4,1.1-0.4,1.7c0,0.7,0.1,1.3,0.3,1.8c0.2,0.5,0.5,0.9,0.8,1.2c0.3,0.3,0.7,0.5,1.1,0.7c0.4,0.2,0.7,0.3,1,0.4l2.4,0.8
		c0.5,0.2,1,0.4,1.4,0.7c0.3,0.3,0.5,0.8,0.5,1.5c0,0.8-0.2,1.4-0.7,1.8c-0.5,0.4-1,0.6-1.6,0.6c-0.8,0-1.4-0.1-1.9-0.4
		c-0.5-0.3-1-0.6-1.4-1c-0.4-0.4-0.7-0.9-0.9-1.4c-0.2-0.5-0.4-1-0.6-1.5l0-0.2h-0.7v4.9h0.7l0.1-0.1c0.1-0.1,0.1-0.2,0.2-0.2
		c0.1-0.1,0.6-0.1,1,0c0.3,0.1,0.6,0.2,0.9,0.3c0.3,0.1,0.7,0.2,1.1,0.3c0.4,0.1,0.8,0.1,1.3,0.1c0.8,0,1.6-0.1,2.2-0.4
		c0.6-0.3,1.2-0.6,1.6-1c0.4-0.4,0.8-0.9,1-1.5c0.2-0.6,0.3-1.2,0.3-1.7C260,32.4,259.7,31.5,259,30.9z"/>
	<path class="st0" d="M127.5,36.5c-0.2,0.2-0.4,0.3-0.7,0.3c-0.6,0.2-1,0.1-1.3-0.1c-0.1-0.1-0.2-0.4-0.2-1.1v-7.8
		c0-0.6-0.1-1.2-0.3-1.7c-0.2-0.5-0.5-1-0.9-1.5c-0.4-0.4-1-0.8-1.7-1c-0.7-0.2-1.5-0.4-2.5-0.4c-0.8,0-1.6,0.1-2.2,0.3
		c-0.6,0.2-1.2,0.5-1.6,0.8c-0.4,0.3-0.8,0.7-1,1.2c-0.2,0.4-0.3,0.9-0.3,1.4c0,0.4,0.1,0.8,0.3,1.1c0.2,0.3,0.7,0.5,1.5,0.5
		c0.5,0,0.8-0.1,1.1-0.4c0.3-0.2,0.4-0.5,0.4-0.9c0-0.2,0-0.4-0.1-0.8c-0.1-0.3-0.1-0.7-0.1-1c0-0.5,0.2-0.8,0.6-1
		c0.4-0.2,1-0.3,1.6-0.3c0.5,0,0.9,0.1,1.2,0.2c0.3,0.1,0.5,0.3,0.6,0.6c0.2,0.3,0.3,0.6,0.3,0.9c0.1,0.4,0.1,0.8,0.1,1.3
		c0,0.6,0,1.1-0.1,1.4c-0.1,0.3-0.2,0.6-0.5,0.8c-0.2,0.2-0.6,0.4-1,0.6c-0.4,0.2-1,0.4-1.7,0.6c-0.6,0.2-1.2,0.4-1.7,0.5
		c-0.6,0.2-1.1,0.4-1.6,0.7c-0.5,0.3-0.9,0.7-1.2,1.1c-0.3,0.5-0.5,1.1-0.5,1.9c0,0.3,0.1,0.7,0.1,1.1c0.1,0.4,0.3,0.8,0.6,1.1
		c0.3,0.3,0.8,0.6,1.3,0.8c0.5,0.2,1.3,0.3,2.2,0.3c0.8,0,1.5-0.1,2-0.3c0.5-0.2,1-0.4,1.3-0.7c0.3-0.3,0.6-0.6,0.7-0.9
		c0-0.1,0.1-0.2,0.1-0.2c0.2,0.6,0.5,1,0.8,1.4c0.5,0.5,1.3,0.7,2.3,0.7c0.6,0,1.1-0.1,1.5-0.3c0.4-0.2,0.7-0.4,1-0.6l0.2-0.1
		l-0.5-0.7L127.5,36.5z M122.1,32.9c0,0.4,0,0.9-0.1,1.4c-0.1,0.5-0.2,0.9-0.4,1.4c-0.2,0.4-0.5,0.7-0.9,1c-0.4,0.3-0.9,0.4-1.5,0.4
		c-0.4,0-0.8-0.1-1.1-0.2c-0.3-0.1-0.5-0.3-0.6-0.6c-0.2-0.2-0.3-0.5-0.3-0.8c-0.1-0.3-0.1-0.6-0.1-0.9c0-0.7,0.2-1.3,0.5-1.7
		c0.3-0.5,0.8-0.8,1.4-1.1l2.4-0.9c0.3-0.1,0.6-0.3,0.8-0.4V32.9z"/>
	<path class="st0" d="M143.8,25.5c-0.6-0.7-1.4-1.2-2.2-1.6c-0.8-0.4-1.7-0.6-2.6-0.6c-1.2,0-2.2,0.3-2.9,0.9
		c-0.5,0.4-0.9,0.8-1.2,1.4v-11h-5.6v0.9h2.4v21.3h-2.4v0.9h5.5v-2c0.2,0.4,0.4,0.7,0.8,1.1c0.3,0.4,0.8,0.7,1.3,0.9
		c0.5,0.3,1.2,0.4,1.9,0.4c1,0,1.9-0.2,2.7-0.6c0.9-0.4,1.6-1,2.2-1.7c0.6-0.7,1.2-1.5,1.5-2.4c0.4-0.9,0.6-1.8,0.6-2.8
		c0-1-0.2-1.9-0.5-2.8C144.9,26.9,144.4,26.2,143.8,25.5z M142.1,33.2c-0.1,0.9-0.2,1.6-0.5,2.2c-0.2,0.6-0.6,1-1,1.3
		c-0.5,0.3-1.1,0.5-1.9,0.5c-0.8,0-1.5-0.2-2-0.5c-0.5-0.4-0.9-0.8-1.2-1.4c-0.3-0.6-0.5-1.2-0.6-1.9c-0.1-0.7-0.2-1.4-0.2-2.1
		c0-0.8,0-1.5,0-2.1c0-0.6,0.1-1.1,0.2-1.6c0.1-0.4,0.2-0.8,0.3-1.1c0.1-0.3,0.3-0.6,0.5-0.9c0.3-0.4,0.7-0.7,1.1-1
		c0.5-0.3,1.1-0.4,1.8-0.4c0.7,0,1.2,0.1,1.7,0.4c0.4,0.3,0.8,0.7,1,1.2c0.2,0.5,0.4,1.2,0.5,1.9c0.1,0.8,0.2,1.6,0.2,2.6
		C142.2,31.3,142.2,32.3,142.1,33.2z"/>
	<path class="st0" d="M207.8,34.7c-0.1,0.6-0.4,1.2-0.8,1.7c-0.4,0.5-0.9,0.7-1.6,0.7c-0.2,0-0.4,0-0.6-0.1
		c-0.2-0.1-0.3-0.2-0.5-0.3c-0.2-0.2-0.3-0.4-0.4-0.8c-0.1-0.3-0.2-0.8-0.2-1.4v-10h4.5v-0.9h-4.5v-4.6l-0.4,0.3
		c-0.2,0.1-0.4,0.3-0.6,0.3c-0.2,0.1-0.5,0.1-0.7,0.1c-0.4,0-0.6,0-0.7-0.1c-0.1,0-0.3-0.1-0.5-0.2l-0.3-0.1v4.2h-2.4v0.9h2.4v9.8
		c0,1.2,0.3,2.1,1,2.7c0.7,0.6,1.8,1,3.4,1c0.7,0,1.2-0.1,1.7-0.3c0.4-0.2,0.8-0.5,1.1-0.8c0.3-0.3,0.5-0.7,0.6-1
		c0.1-0.4,0.2-0.7,0.3-0.9l0-0.2l-0.9-0.3L207.8,34.7z"/>
	<polygon class="st0" points="194.1,23.7 188.6,23.7 188.6,24.6 191,24.6 191,36.7 188.6,36.7 188.6,37.6 196.5,37.6 196.5,36.7 
		194.1,36.7 	"/>
	<path class="st0" d="M188.6,14.8h-7.2v0.9h3.3l-6.3,17.4l-5.5-14.4c0.3-1.8,0.6-3.9,0.7-5.3c0.1-2.9-0.7-4.9-1.9-4.9c0,0,0,0,0,0
		c-0.1,0-0.1,0-0.2,0c-0.5,0-1.3,0.1-2,1.1c-1.3,1.9-0.9,6,1.1,12.1l0.1,0.4l-4,11l-6.2-17.4h3.2v-0.9h-9.9v0.9h2.9l7.9,22.2
		l0.1,0.2h1.2l5.3-14.7c0.2,0.7,0.5,1.3,0.7,2l4.5,12.7h1.1l8.1-22.4h2.9V14.8z M171.7,9.1c0.6,0,1.3,1.3,1.3,4.2
		c0,1.1-0.2,2.7-0.5,4.2l-0.2-0.4c-1-3.2-1.6-6.4-1.1-7.6C171.4,9.3,171.6,9.1,171.7,9.1z"/>
</g>
</svg>
